<svg width="42" height="42" viewBox="0 0 80 80" fill="none" xmlns="http://www.w3.org/2000/svg">
<path fill-rule="evenodd" clip-rule="evenodd" d="M40 0C62.0914 0 80 17.9086 80 40C80 62.0914 62.0914 80 40 80C17.9086 80 0 62.0914 0 40C0 17.9086 17.9086 0 40 0ZM57.2686 24.0801C55.7453 24.1066 53.408 24.9101 42.1611 29.5303C38.2219 31.1485 30.3484 34.4978 18.542 39.5781C16.6251 40.3311 15.6207 41.0678 15.5293 41.7881C15.3542 43.1707 17.3702 43.6008 19.9062 44.415C21.9739 45.0788 24.755 45.8557 26.2012 45.8867C27.5129 45.9147 28.9774 45.3804 30.5938 44.2842C41.6239 36.9304 47.3183 33.2136 47.6768 33.1328C47.929 33.0763 48.2788 33.005 48.5156 33.2129C48.7521 33.4207 48.7292 33.8141 48.7041 33.9199C48.5035 34.7644 38.1403 44.0738 37.5439 44.6855C35.2652 47.023 32.6737 48.4533 36.6719 51.0557C40.1319 53.3076 42.1454 54.745 45.71 57.0527C47.9879 58.5275 49.7741 60.2762 52.126 60.0625C53.2082 59.9641 54.3258 58.9585 54.8936 55.9609C56.2353 48.8768 58.8729 33.528 59.4824 27.2031C59.5358 26.6491 59.468 25.9403 59.4141 25.6289C59.3601 25.3176 59.2476 24.8733 58.8379 24.5449C58.3526 24.1563 57.6035 24.0743 57.2686 24.0801Z" fill="white"/>
</svg>
